<svg width="28" height="29" viewBox="0 0 28 29" fill="none" xmlns="http://www.w3.org/2000/svg">
<circle cx="13.875" cy="14.5703" r="13.875" fill="currentColor"/>
<path fill-rule="evenodd" clip-rule="evenodd" d="M23.0644 11.1073C23.0644 11.1073 22.881 9.78465 22.3191 9.20231C21.606 8.43757 20.8068 8.434 20.4406 8.38962C17.8168 8.19531 13.881 8.19531 13.881 8.19531H13.8728C13.8728 8.19531 9.9371 8.19531 7.31327 8.38962C6.94648 8.434 6.14785 8.43757 5.43418 9.20231C4.87226 9.7848 4.68945 11.1073 4.68945 11.1073C4.68945 11.1073 4.50195 12.6609 4.50195 14.2138L4.50195 15.6701C4.50195 17.2236 4.68945 18.7766 4.68945 18.7766C4.68945 18.7766 4.87226 20.0992 5.43418 20.6816C6.14785 21.4463 7.08476 21.4223 7.50195 21.5022C9.00194 21.6497 13.8769 21.6953 13.8769 21.6953C13.8769 21.6953 17.8168 21.6893 20.4406 21.495C20.8068 21.45 21.606 21.4465 22.3191 20.6817C22.881 20.0992 23.0644 18.7767 23.0644 18.7767C23.0644 18.7767 23.2519 17.2237 23.2519 15.6701L23.2519 14.2138C23.2519 12.6609 23.0644 11.1073 23.0644 11.1073ZM11.941 17.4349L11.9404 12.0419L17.0064 14.7477L11.941 17.4349Z" fill="black"/>
</svg>
