<svg width="28" height="29" viewBox="0 0 28 29" fill="none" xmlns="http://www.w3.org/2000/svg">
<circle cx="14.125" cy="14.5703" r="13.875" fill="currentColor"/>
<path d="M14.2346 19.5834C14.4725 19.5365 14.9008 19.4428 14.9008 18.8802C14.9008 18.8802 14.8532 17.4738 15.5194 17.2863C16.1856 17.0988 17.0422 18.6458 17.9463 19.2553C18.6125 19.6772 19.1359 19.6303 19.1359 19.6303L21.5628 19.5834C21.5628 19.5834 22.8 19.4896 22.229 18.5052C22.1814 18.4114 21.8007 17.802 20.3731 16.5363C18.898 15.1299 19.1359 15.3643 20.8966 12.9735C21.9911 11.5202 22.4669 10.6295 22.3242 10.3013C22.1338 9.97319 21.3724 10.0201 21.3724 10.0201L18.6601 10.0201C18.3745 10.0201 18.2318 10.067 18.089 10.3013C18.089 10.3013 17.6608 11.4733 17.0897 12.4109C15.9001 14.4267 15.4242 14.5205 15.1863 14.3798C14.758 14.1454 14.8532 13.2547 14.8532 12.6453C14.8532 10.5357 15.1863 9.78568 14.2346 9.59816C13.616 9.5044 11.427 9.41065 10.7608 9.7388C10.4277 9.92632 10.2374 10.2545 10.3802 10.3013C10.5229 10.3013 10.9512 10.3482 11.1891 10.6295C11.5698 11.2389 11.6174 14.1454 11.0939 14.4267C10.3802 14.9424 8.57191 11.5202 8.14363 10.3951C8.04846 10.1138 7.90571 10.067 7.57261 9.97319H4.9554C4.66988 9.97319 4.24161 10.0201 4.43195 10.5826C5.71677 13.2079 8.38156 19.6303 13.1877 19.5834H14.2346Z" fill="black"/>
</svg>
