<svg width="29" height="29" viewBox="0 0 29 29" fill="none" xmlns="http://www.w3.org/2000/svg">
<circle cx="14.625" cy="14.5703" r="13.875" fill="currentColor"/>
<path fill-rule="evenodd" clip-rule="evenodd" d="M20.2124 10.01C20.2124 10.5763 19.7533 11.0354 19.1871 11.0354C18.6208 11.0354 18.1617 10.5763 18.1617 10.01C18.1617 9.44362 18.6208 8.98461 19.1871 8.98461C19.7534 8.98461 20.2124 9.44362 20.2124 10.01ZM14.6259 17.4194C13.0528 17.4194 11.7776 16.1442 11.7776 14.5712C11.7776 12.9981 13.0528 11.7229 14.6259 11.7229C16.1989 11.7229 17.4741 12.9981 17.4741 14.5712C17.4741 16.1442 16.1989 17.4194 14.6259 17.4194ZM14.6259 10.1833C12.2025 10.1833 10.238 12.1478 10.238 14.5712C10.238 16.9946 12.2025 18.9591 14.6259 18.9591C17.0492 18.9591 19.0138 16.9946 19.0138 14.5712C19.0138 12.1478 17.0492 10.1833 14.6259 10.1833ZM14.6259 7.56603C16.9075 7.56603 17.1777 7.57471 18.0786 7.61583C18.9117 7.65389 19.3642 7.79301 19.6653 7.9101C20.0641 8.0651 20.3487 8.25029 20.6478 8.54935C20.9469 8.84829 21.1321 9.13294 21.2871 9.53187C21.404 9.83294 21.5433 10.2854 21.5813 11.1185C21.6225 12.0196 21.6311 12.2898 21.6311 14.5714C21.6311 16.853 21.6225 17.1233 21.5813 18.0242C21.5433 18.8573 21.4042 19.3098 21.2871 19.6109C21.1321 20.0097 20.9469 20.2943 20.6478 20.5934C20.3489 20.8925 20.0642 21.0776 19.6653 21.2326C19.3642 21.3496 18.9117 21.4889 18.0786 21.5269C17.1777 21.568 16.9075 21.5767 14.6259 21.5767C12.3441 21.5767 12.0739 21.568 11.173 21.5269C10.3398 21.4889 9.88737 21.3497 9.58629 21.2326C9.18749 21.0776 8.90284 20.8925 8.60378 20.5934C8.30484 20.2945 8.11952 20.0098 7.96452 19.6109C7.84756 19.3098 7.70831 18.8573 7.67025 18.0242C7.62913 17.1231 7.62045 16.8529 7.62045 14.5714C7.62045 12.2898 7.62913 12.0196 7.67025 11.1185C7.70831 10.2854 7.84743 9.83294 7.96452 9.53187C8.11952 9.13307 8.30471 8.84842 8.60378 8.54935C8.90271 8.25029 9.18736 8.0651 9.58629 7.9101C9.88737 7.79314 10.3398 7.65389 11.173 7.61583C12.074 7.57471 12.3443 7.56603 14.6259 7.56603ZM14.6259 6.02637C12.3053 6.02637 12.0142 6.03625 11.1029 6.07777C10.1934 6.11929 9.57214 6.26375 9.02875 6.47497C8.46679 6.69326 7.99028 6.98552 7.51525 7.46056C7.04021 7.9356 6.74795 8.4121 6.52966 8.97406C6.31844 9.51759 6.17398 10.1387 6.13246 11.0482C6.09093 11.9595 6.08105 12.2506 6.08105 14.5712C6.08105 16.8918 6.09093 17.1828 6.13246 18.0942C6.17398 19.0037 6.31844 19.6248 6.52966 20.1683C6.74795 20.7302 7.04021 21.2067 7.51525 21.6818C7.99028 22.1568 8.46679 22.4489 9.02875 22.6674C9.57228 22.8786 10.1934 23.0231 11.1029 23.0646C12.0142 23.1061 12.3053 23.116 14.6259 23.116C16.9464 23.116 17.2375 23.1061 18.1489 23.0646C19.0583 23.0231 19.6794 22.8786 20.223 22.6674C20.7849 22.4489 21.2614 22.1568 21.7365 21.6818C22.2115 21.2067 22.5036 20.7302 22.7221 20.1683C22.9333 19.6248 23.0777 19.0037 23.1193 18.0942C23.1608 17.1828 23.1707 16.8918 23.1707 14.5712C23.1707 12.2506 23.1608 11.9595 23.1193 11.0482C23.0777 10.1387 22.9333 9.51759 22.7221 8.97406C22.5036 8.4121 22.2115 7.9356 21.7365 7.46056C21.2614 6.98552 20.7849 6.6934 20.223 6.47497C19.6794 6.26375 19.0583 6.11929 18.1489 6.07777C17.2375 6.03625 16.9464 6.02637 14.6259 6.02637Z" fill="black"/>
</svg>
