<svg width="121" height="46" viewBox="0 0 121 46" fill="none" xmlns="http://www.w3.org/2000/svg">
<path d="M0 14.6512V29.3025L15.3838 15.7501V0L0 14.6512Z" fill="white"/>
<path d="M30.7676 16.1164V29.3025L15.3838 15.3838H30.7676V16.1164Z" fill="white"/>
<path d="M30.7666 29.3029L15.3828 43.2601L15.3828 15.3457L30.7666 29.3029Z" fill="#FEB938"/>
<path d="M7.04469e-07 29.3029L15.3838 43.2601L15.3838 15.3457L7.04469e-07 29.3029Z" fill="#FF970A"/>
<path d="M42.2832 19.1703L42.2761 21.6699L46.0664 21.6808C47.6645 21.6854 48.8995 22.0919 49.7714 22.9003C50.6569 23.695 51.0978 24.7754 51.0938 26.1413C51.0897 27.5891 50.6152 28.7078 49.6705 29.4973C48.7257 30.2868 47.4133 30.6792 45.7333 30.6744L39.095 30.6553L39.1362 16.3133L50.1385 16.3449L50.1303 19.1928L42.2832 19.1703ZM45.7311 24.3024L42.2685 24.2924L42.2584 27.8164L45.7414 27.8264C47.203 27.8306 47.9355 27.2249 47.9389 26.0093C47.9422 24.8756 47.2062 24.3066 45.7311 24.3024ZM53.681 30.6972L53.7223 16.3552L59.582 16.3721C61.2757 16.3769 62.613 16.8384 63.5938 17.7563C64.5746 18.6743 65.0628 19.8846 65.0585 21.3871C65.0539 22.9852 64.504 24.2266 63.4087 25.1113C62.3135 25.9823 60.9258 26.4154 59.2458 26.4106L56.8486 26.4037L56.8363 30.7063L53.681 30.6972ZM56.8567 23.5967L59.3563 23.6039C60.1349 23.6062 60.7433 23.403 61.1815 22.9945C61.6335 22.586 61.8604 22.054 61.8623 21.3984C61.8643 20.7017 61.6404 20.1684 61.1907 19.7983C60.7411 19.4146 60.1133 19.2215 59.3074 19.2192L56.8693 19.2122L56.8567 23.5967ZM79.7625 16.4301L79.7213 30.772L76.607 30.7631L76.6341 21.3589L70.3376 30.7451L67.3667 30.7365L67.4079 16.3946L70.5222 16.4035L70.4952 25.8077L76.8327 16.4217L79.7625 16.4301ZM81.6485 33.7689L81.6653 27.9297L83.0176 27.9336C83.5813 26.6376 83.9882 25.266 84.2382 23.8189C84.4882 22.3717 84.6166 20.4735 84.6234 18.1241L84.6282 16.4441L95.0569 16.474L95.0238 27.9681L96.7449 27.973L96.3183 33.8111L93.6753 33.8035L93.6839 30.8122L84.7099 30.7864L84.4964 33.7771L81.6485 33.7689ZM91.8935 19.3129L87.6523 19.3007L87.6482 20.7554C87.6404 23.4598 87.2032 25.8558 86.3367 27.9431L91.8686 27.959L91.8935 19.3129ZM110.249 30.8598L107.115 30.8508L107.126 27.0399L105.226 24.9856L101.173 30.8337L97.4032 30.8229L103.102 22.7052L97.6493 16.4815L101.399 16.4923L107.137 23.2085L107.156 16.5088L110.291 16.5178L110.271 23.2176L116.048 16.5344L119.797 16.5451L114.309 22.7374L119.961 30.8877L116.191 30.8769L112.151 25.0055L110.26 27.0489L110.249 30.8598Z" fill="white"/>
<path d="M38.0066 41.1638L38.0171 37.533L38.5578 37.5345L38.5496 40.4069L40.7139 37.5407L41.2406 37.5423L41.2301 41.1731L40.6894 41.1715L40.6976 38.2992L38.5263 41.1653L38.0066 41.1638ZM42.4371 41.1766L42.4475 37.5457L42.9883 37.5473L42.9838 39.1134L45.0766 39.1194L45.0811 37.5533L45.6219 37.5549L45.6114 41.1857L45.0707 41.1841L45.0752 39.597L42.9824 39.5909L42.9779 41.1781L42.4371 41.1766ZM46.8195 41.1891L46.83 37.5583L48.5857 37.5634C48.9462 37.5644 49.2339 37.6472 49.4488 37.8117C49.6637 37.9761 49.7707 38.1965 49.7699 38.4727C49.7688 38.8613 49.5667 39.1393 49.1636 39.3067C49.6969 39.4534 49.9629 39.7538 49.9616 40.2079C49.9607 40.5123 49.8406 40.753 49.6014 40.9303C49.3621 41.1075 49.0411 41.1955 48.6385 41.1944L46.8195 41.1891ZM47.3616 40.7272L48.5696 40.7307C48.8271 40.7314 49.0309 40.6781 49.181 40.5709C49.3311 40.4636 49.4065 40.314 49.407 40.1221C49.4075 39.9442 49.3283 39.8058 49.1694 39.707C49.0152 39.6083 48.793 39.5585 48.5027 39.5576L47.365 39.5544L47.3616 40.7272ZM47.3662 39.119L48.4829 39.1222C48.7076 39.1228 48.8857 39.0742 49.017 38.9762C49.1531 38.8736 49.2214 38.7287 49.222 38.5414C49.2224 38.3869 49.1596 38.2626 49.0334 38.1686C48.9073 38.0746 48.7295 38.0273 48.5001 38.0266L47.3694 38.0234L47.3662 39.119ZM52.5214 41.2898C52.0111 41.2883 51.5809 41.1115 51.2307 40.7594C50.8853 40.4026 50.7134 39.9456 50.715 39.3884C50.7165 38.8594 50.884 38.4127 51.2174 38.0485C51.5509 37.6796 51.9658 37.4958 52.4621 37.4973C52.9818 37.4988 53.3933 37.6825 53.6965 38.0486C53.9998 38.4147 54.1507 38.8739 54.1491 39.4264C54.1489 39.4966 54.1463 39.5598 54.1415 39.616L51.2621 39.6077C51.2985 39.9777 51.4358 40.273 51.6739 40.4938C51.9168 40.7099 52.2044 40.8184 52.5368 40.8193C52.9722 40.8206 53.3543 40.6508 53.683 40.3099L54.0192 40.6129C53.6106 41.0659 53.1113 41.2915 52.5214 41.2898ZM51.2634 39.1723L53.602 39.179C53.5702 38.8278 53.454 38.5372 53.2534 38.3072C53.0574 38.0725 52.7885 37.9547 52.4467 37.9537C52.1377 37.9528 51.8729 38.0668 51.6522 38.2955C51.4314 38.5243 51.3019 38.8166 51.2634 39.1723ZM56.7267 41.3019C56.2023 41.3004 55.7604 41.1142 55.401 40.7433C55.0462 40.3677 54.8696 39.9201 54.8711 39.4004C54.8726 38.8807 55.0518 38.4364 55.4087 38.0676C55.7702 37.694 56.2132 37.508 56.7376 37.5095C57.2994 37.5112 57.7834 37.7279 58.1895 38.1598L57.8443 38.524C57.5082 38.1672 57.1365 37.9883 56.7292 37.9871C56.364 37.986 56.0546 38.1233 55.801 38.3988C55.5521 38.6696 55.427 39.004 55.4259 39.402C55.4248 39.7952 55.5502 40.1304 55.8022 40.4073C56.059 40.6796 56.3769 40.8163 56.7562 40.8174C57.1448 40.8185 57.5105 40.637 57.8533 40.2728L58.2105 40.6039C57.7878 41.0709 57.2932 41.3035 56.7267 41.3019ZM59.9806 41.227L59.9896 38.0737L58.6904 38.07L58.6918 37.5924L61.838 37.6015L61.8366 38.079L60.5374 38.0753L60.5283 41.2285L59.9806 41.227ZM62.6141 41.2345L62.6246 37.6037L63.1653 37.6053L63.1571 40.4776L65.3214 37.6115L65.8481 37.613L65.8376 41.2438L65.2969 41.2423L65.3051 38.3699L63.1338 41.236L62.6141 41.2345ZM70.1742 42.1622L70.1768 41.2563L67.0446 41.2473L67.055 37.6165L67.5958 37.618L67.5867 40.7713L69.6233 40.7771L69.6324 37.6239L70.1732 37.6254L70.1641 40.7787L70.7119 40.7803L70.6236 42.1635L70.1742 42.1622ZM71.4544 41.26L71.4649 37.6291L72.0056 37.6307L71.9974 40.503L74.1617 37.6369L74.6884 37.6384L74.6779 41.2692L74.1372 41.2677L74.1454 38.3953L71.9741 41.2614L71.4544 41.26ZM78.8991 40.8108C78.5328 41.1796 78.0805 41.3633 77.542 41.3617C77.0036 41.3602 76.5547 41.1739 76.1953 40.803C75.8405 40.4321 75.6639 39.9845 75.6654 39.4601C75.6669 38.9404 75.8484 38.4962 76.21 38.1273C76.5762 37.7538 77.0286 37.5679 77.567 37.5694C78.1054 37.571 78.5543 37.7572 78.9138 38.1281C79.2732 38.499 79.4522 38.9466 79.4507 39.471C79.4492 39.9907 79.2653 40.4373 78.8991 40.8108ZM77.5575 40.8772C77.9461 40.8783 78.2648 40.7434 78.5138 40.4726C78.7674 40.2018 78.8947 39.8674 78.8959 39.4694C78.897 39.0761 78.7669 38.741 78.5055 38.464C78.2488 38.187 77.9308 38.048 77.5516 38.0469C77.163 38.0458 76.8442 38.183 76.5953 38.4585C76.3464 38.7294 76.2213 39.0638 76.2202 39.4617C76.219 39.855 76.3468 40.1901 76.6035 40.4671C76.8603 40.7394 77.1783 40.8761 77.5575 40.8772ZM80.4251 41.2857L80.4355 37.6549L80.9763 37.6565L80.9718 39.2226L83.0646 39.2286L83.0691 37.6625L83.6098 37.664L83.5994 41.2949L83.0586 41.2933L83.0632 39.7061L80.9704 39.7001L80.9658 41.2873L80.4251 41.2857ZM84.8075 41.2983L84.8179 37.6675L85.3587 37.6691L85.3542 39.2352L87.447 39.2412L87.4515 37.6751L87.9923 37.6766L87.9818 41.3075L87.4411 41.3059L87.4456 39.7187L85.3528 39.7127L85.3483 41.2999L84.8075 41.2983ZM89.1899 41.3109L89.2004 37.6801L89.7411 37.6817L89.7372 39.0441L90.7064 39.0469C91.1278 39.0481 91.4716 39.1404 91.738 39.3237C92.0043 39.5024 92.137 39.7744 92.1359 40.1395C92.1349 40.5 92.01 40.7876 91.7612 41.0023C91.5125 41.2123 91.1798 41.3166 90.7631 41.3154L89.1899 41.3109ZM89.7321 40.8349L90.7153 40.8378C90.9915 40.8385 91.2047 40.7806 91.3549 40.664C91.5097 40.5474 91.5874 40.3767 91.5881 40.152C91.5887 39.946 91.5095 39.7889 91.3507 39.6808C91.1965 39.568 90.9789 39.5112 90.698 39.5104L89.7359 39.5076L89.7321 40.8349ZM92.7857 41.3213L92.7961 37.6904L93.3369 37.692L93.3264 41.3228L92.7857 41.3213ZM94.5325 41.3263L94.543 37.6955L95.0837 37.697L95.0755 40.5694L97.2398 37.7032L97.7665 37.7047L97.756 41.3355L97.2153 41.334L97.2235 38.4616L95.0522 41.3278L94.5325 41.3263ZM96.7925 36.9434C96.6141 37.1021 96.3962 37.1811 96.1387 37.1803C95.8812 37.1796 95.6613 37.0994 95.4792 36.9397C95.3017 36.78 95.1923 36.5737 95.1509 36.3207L95.5233 36.2445C95.616 36.5725 95.8216 36.737 96.1399 36.7379C96.4583 36.7388 96.6648 36.5755 96.7594 36.2481L97.1313 36.3264C97.0885 36.5791 96.9755 36.7848 96.7925 36.9434ZM103.249 42.475L103.253 41.0564C102.962 41.3037 102.66 41.4269 102.346 41.426C101.906 41.4247 101.551 41.2552 101.28 40.9173C101.01 40.5747 100.875 40.1085 100.877 39.5186C100.879 38.938 101.016 38.4796 101.288 38.1432C101.561 37.8069 101.917 37.6394 102.357 37.6407C102.671 37.6416 102.973 37.7735 103.262 38.0365L103.267 36.4353L103.814 36.4369L103.81 38.0381C104.101 37.7768 104.403 37.6465 104.717 37.6474C105.162 37.6487 105.519 37.8206 105.79 38.1632C106.061 38.5011 106.195 38.9626 106.193 39.5479C106.192 40.1284 106.052 40.5892 105.775 40.9302C105.503 41.2665 105.146 41.434 104.706 41.4328C104.505 41.4322 104.339 41.4013 104.208 41.34C104.082 41.2741 103.946 41.1801 103.801 41.058L103.797 42.4766L103.249 42.475ZM102.46 40.9488C102.764 40.9496 103.029 40.831 103.255 40.5929L103.261 38.486C103.037 38.2466 102.773 38.1264 102.468 38.1256C102.131 38.1246 101.876 38.2503 101.702 38.5026C101.528 38.7549 101.44 39.1035 101.439 39.5483C101.436 40.48 101.777 40.9468 102.46 40.9488ZM104.602 40.9549C105.286 40.9569 105.629 40.4873 105.632 39.5463C105.633 39.1062 105.547 38.7618 105.375 38.5132C105.202 38.2598 104.947 38.1327 104.61 38.1317C104.306 38.1308 104.039 38.2495 103.809 38.4876L103.803 40.5944C104.031 40.8339 104.298 40.954 104.602 40.9549ZM110.214 40.9008C109.848 41.2696 109.395 41.4533 108.857 41.4517C108.319 41.4502 107.87 41.264 107.51 40.893C107.155 40.5221 106.979 40.0745 106.98 39.5501C106.982 39.0304 107.163 38.5862 107.525 38.2173C107.891 37.8438 108.343 37.6579 108.882 37.6594C109.42 37.661 109.869 37.8472 110.229 38.2181C110.588 38.589 110.767 39.0366 110.766 39.561C110.764 40.0807 110.58 40.5273 110.214 40.9008ZM108.872 40.9672C109.261 40.9683 109.58 40.8334 109.829 40.5626C110.082 40.2918 110.21 39.9574 110.211 39.5594C110.212 39.1661 110.082 38.831 109.82 38.554C109.564 38.2771 109.246 38.138 108.866 38.1369C108.478 38.1358 108.159 38.273 107.91 38.5485C107.661 38.8194 107.536 39.1538 107.535 39.5517C107.534 39.945 107.662 40.2801 107.918 40.5571C108.175 40.8294 108.493 40.9661 108.872 40.9672ZM111.74 41.3757L111.75 37.7449L112.291 37.7465L112.287 39.3126L114.379 39.3186L114.384 37.7525L114.925 37.754L114.914 41.3849L114.374 41.3833L114.378 39.7961L112.285 39.7901L112.281 41.3773L111.74 41.3757ZM115.586 42.2927L115.59 40.9092L115.983 40.9104C116.308 40.3167 116.472 39.4768 116.475 38.3906L116.477 37.7585L119.061 37.7659L119.052 40.9192L119.6 40.9208L119.512 42.304L119.062 42.3027L119.065 41.3968L116.129 41.3884L116.028 42.294L115.586 42.2927ZM116.559 40.912L118.512 40.9176L118.519 38.2419L116.995 38.2375L116.994 38.7432C116.991 39.6562 116.846 40.3791 116.559 40.912Z" fill="white"/>
</svg>
