<svg width="121" height="46" fill="none" xmlns="http://www.w3.org/2000/svg"><path d="M0 14.651v14.651L15.384 15.75V0L0 14.651zm30.768 1.465v13.186L15.384 15.384h15.384v.732z" fill="#fff"/><path d="M30.767 29.303L15.383 43.26V15.346l15.384 13.957z" fill="#FEB938"/><path d="M0 29.303L15.384 43.26V15.346L0 29.303z" fill="#FF970A"/><path d="M42.283 19.17l-.007 2.5 3.79.01c1.598.005 2.834.412 3.705 1.22.886.795 1.327 1.875 1.323 3.241-.004 1.448-.479 2.567-1.424 3.356-.944.79-2.257 1.182-3.937 1.177l-6.638-.019.041-14.342 11.002.032-.008 2.848-7.847-.023zm3.448 5.132l-3.462-.01-.01 3.524 3.482.01c1.462.005 2.194-.601 2.198-1.817.003-1.133-.733-1.702-2.208-1.707zm7.95 6.395l.041-14.342 5.86.017c1.694.005 3.031.466 4.012 1.384.98.918 1.469 2.129 1.464 3.631-.004 1.598-.554 2.84-1.65 3.724-1.095.871-2.482 1.304-4.162 1.3l-2.397-.007-.013 4.302-3.155-.009zm3.176-7.1l2.5.007c.778.002 1.386-.201 1.825-.61.451-.408.678-.94.68-1.596.002-.696-.222-1.23-.671-1.6-.45-.383-1.078-.576-1.884-.579l-2.438-.007-.012 4.385zm22.906-7.167l-.042 14.342-3.114-.009.027-9.404-6.296 9.386-2.971-.009.04-14.341 3.115.009-.027 9.404 6.338-9.386 2.93.008zm1.885 17.339l.017-5.84 1.353.005c.563-1.296.97-2.668 1.22-4.115s.379-3.345.385-5.695l.005-1.68 10.429.03-.033 11.494 1.72.005-.426 5.838-2.643-.008.009-2.99-8.974-.027-.214 2.991-2.847-.008zm10.246-14.456l-4.242-.012-.004 1.454c-.008 2.705-.445 5.1-1.311 7.188l5.532.016.025-8.646zm18.355 11.547l-3.134-.01.011-3.81-1.9-2.054-4.053 5.848-3.77-.011 5.699-8.118-5.453-6.223 3.75.01 5.738 6.716.019-6.7 3.135.01-.02 6.7 5.777-6.684 3.749.011-5.488 6.192 5.652 8.15-3.77-.01-4.04-5.871-1.891 2.043-.011 3.81zM38.007 41.164l.01-3.631.54.002-.007 2.872 2.164-2.866.527.001-.01 3.631-.542-.002.009-2.872-2.172 2.866-.52-.001zm4.43.013l.01-3.631.541.001-.004 1.566 2.093.006.004-1.566.54.002-.01 3.63h-.54l.004-1.588-2.093-.006-.004 1.587-.54-.001zm4.383.012l.01-3.63 1.756.004c.36.001.648.084.863.249a.787.787 0 01.32.66c0 .39-.202.667-.605.835.533.146.799.447.798.9a.855.855 0 01-.36.723c-.24.178-.56.266-.963.264l-1.82-.005zm.542-.462l1.208.004c.257 0 .46-.053.611-.16a.522.522 0 00.226-.449.462.462 0 00-.238-.415c-.154-.099-.376-.148-.666-.15l-1.138-.003-.003 1.173zm.004-1.608l1.117.003c.225 0 .403-.048.534-.146a.515.515 0 00.205-.435.441.441 0 00-.189-.372c-.126-.094-.303-.142-.533-.142l-1.13-.004-.004 1.096zm5.155 2.17a1.757 1.757 0 01-1.29-.53c-.346-.356-.518-.813-.516-1.37.002-.53.169-.976.502-1.34a1.603 1.603 0 011.245-.552c.52.002.931.185 1.234.552.304.366.455.825.453 1.377 0 .07-.003.134-.008.19l-2.879-.008c.036.37.174.665.412.886.243.216.53.324.863.325.435.002.817-.168 1.146-.51l.336.304c-.408.453-.908.678-1.498.677zm-1.258-2.117l2.339.007c-.032-.351-.148-.642-.349-.872-.196-.235-.465-.352-.806-.353a1.06 1.06 0 00-.795.341c-.22.23-.35.522-.389.877zm5.464 2.13a1.781 1.781 0 01-1.326-.559 1.88 1.88 0 01-.53-1.343c.002-.52.18-.964.538-1.332a1.77 1.77 0 011.329-.558c.561.001 1.045.218 1.452.65l-.346.364c-.336-.357-.708-.536-1.115-.537a1.209 1.209 0 00-.928.412 1.43 1.43 0 00-.375 1.003c-.001.393.124.728.376 1.005.257.273.575.41.954.41.389.002.755-.18 1.097-.544l.358.33c-.423.468-.918.7-1.484.699zm3.254-.075l.009-3.153-1.3-.004.002-.478 3.146.01-.001.477-1.3-.004-.009 3.153-.547-.001zm2.633.008l.01-3.631.541.001-.008 2.873 2.164-2.867.527.002-.01 3.63h-.541l.008-2.873-2.171 2.866-.52-.002zm7.56.927l.003-.906-3.132-.009.01-3.63.54.001-.008 3.153 2.036.006.01-3.153.54.001-.009 3.154.548.001-.088 1.383h-.45zm1.28-.902l.01-3.63h.542l-.009 2.873 2.165-2.866.526.001-.01 3.631-.54-.001.007-2.873-2.17 2.866-.52-.001zm7.445-.45a1.83 1.83 0 01-1.357.552c-.538-.002-.987-.188-1.347-.559a1.864 1.864 0 01-.53-1.343c.002-.52.183-.964.545-1.333.366-.373.819-.56 1.357-.558.538.002.987.188 1.347.56.36.37.538.818.537 1.342-.002.52-.186.966-.552 1.34zm-1.341.067c.388.001.707-.134.956-.404.253-.271.38-.606.382-1.004a1.406 1.406 0 00-.39-1.005 1.253 1.253 0 00-.954-.417 1.226 1.226 0 00-.957.412 1.43 1.43 0 00-.375 1.003 1.42 1.42 0 00.383 1.005c.257.272.575.41.955.41zm2.867.409l.01-3.631.541.002-.004 1.566 2.093.006.004-1.566.54.001-.01 3.63h-.54l.004-1.588-2.093-.006-.004 1.587-.54-.001zm4.383.012l.01-3.63.54.001-.004 1.566 2.093.006.004-1.566.541.002-.01 3.63-.54-.001.004-1.587-2.093-.006-.005 1.587-.54-.002zm4.382.013l.01-3.63h.541l-.004 1.363.97.003c.42.001.765.093 1.031.277.266.178.399.45.398.816-.001.36-.126.648-.375.862-.248.21-.581.315-.998.313l-1.573-.004zm.542-.476l.983.003c.276 0 .49-.057.64-.174.155-.117.232-.287.233-.512a.533.533 0 00-.237-.471c-.154-.113-.372-.17-.653-.17l-.962-.003-.004 1.327zm3.054.486l.01-3.63.54.001-.01 3.63h-.54zm1.746.005l.011-3.63.54.001-.007 2.872 2.164-2.866.526.002-.01 3.63-.54-.001.008-2.872-2.172 2.866-.52-.002zm2.26-4.383a.944.944 0 01-.653.237.97.97 0 01-.66-.24 1.029 1.029 0 01-.328-.62l.372-.075c.093.328.299.492.617.493.318 0 .525-.163.62-.49l.371.078a1.013 1.013 0 01-.338.617zm6.457 5.532l.004-1.419c-.291.248-.593.37-.907.37a1.306 1.306 0 01-1.066-.509c-.27-.342-.405-.809-.403-1.398.002-.581.139-1.04.411-1.376a1.306 1.306 0 011.069-.502c.314 0 .616.133.905.395l.005-1.6h.547l-.004 1.602c.291-.261.593-.391.907-.39.445 0 .802.173 1.073.515.271.338.405.8.403 1.385-.001.58-.141 1.041-.418 1.382a1.305 1.305 0 01-1.069.503 1.18 1.18 0 01-.498-.093 2.305 2.305 0 01-.407-.282l-.004 1.419-.548-.002zm-.789-1.526c.304 0 .569-.118.795-.356l.006-2.107a1.055 1.055 0 00-.793-.36c-.337-.001-.592.124-.766.377-.174.252-.262.6-.263 1.045-.003.932.338 1.399 1.021 1.4zm2.142.006c.684.002 1.027-.468 1.03-1.409.001-.44-.085-.784-.257-1.033-.173-.253-.428-.38-.765-.381a1.073 1.073 0 00-.801.356l-.006 2.106c.228.24.495.36.799.36zm5.612-.054a1.83 1.83 0 01-1.357.55c-.538 0-.987-.187-1.347-.558a1.866 1.866 0 01-.53-1.343c.002-.52.183-.964.545-1.333.366-.373.818-.56 1.357-.558.538.002.987.188 1.347.56.359.37.538.818.537 1.342-.002.52-.186.966-.552 1.34zm-1.342.066a1.24 1.24 0 00.957-.404 1.42 1.42 0 00.382-1.004 1.404 1.404 0 00-.391-1.005 1.252 1.252 0 00-.954-.417 1.226 1.226 0 00-.956.411 1.435 1.435 0 00-.375 1.004c-.001.393.127.728.383 1.005.257.272.575.41.954.41zm2.868.409l.01-3.631.541.002-.004 1.566 2.092.006.005-1.567.541.002-.011 3.63h-.54l.004-1.588-2.093-.006-.004 1.587-.541-.001zm3.846.917l.004-1.384.393.001c.325-.593.489-1.433.492-2.52l.002-.632 2.584.008-.009 3.153.548.002-.088 1.383-.45-.001.003-.906-2.936-.009-.101.906-.442-.001zm.973-1.381l1.953.006.007-2.676-1.524-.005-.001.506c-.003.913-.148 1.636-.435 2.169z" fill="#fff"/></svg>