<svg width="165" height="62" fill="none" xmlns="http://www.w3.org/2000/svg"><path d="M0 20v20l21-18.5V0L0 20zm42 2v18L21 21h21v1z" fill="#fff"/><path d="M42 40L21 59.053V20.947L42 40z" fill="#FEB938"/><path d="M0 40l21 19.053V20.947L0 40z" fill="#FF970A"/><path d="M57.718 26.329l-.01 3.412 5.175.015c2.181.006 3.867.561 5.057 1.665 1.21 1.084 1.81 2.56 1.806 4.424-.006 1.976-.654 3.503-1.944 4.581-1.29 1.078-3.08 1.613-5.374 1.607l-9.062-.026.056-19.578 15.02.043-.012 3.888-10.712-.031zm4.707 7.005l-4.727-.013-.014 4.81 4.755.014c1.995.006 2.995-.821 3-2.48.004-1.548-1-2.325-3.014-2.33zm10.852 8.73l.056-19.578 8 .023c2.311.007 4.137.637 5.476 1.89 1.339 1.253 2.005 2.905 2 4.956-.007 2.181-.758 3.876-2.253 5.084-1.495 1.189-3.39 1.78-5.682 1.773l-3.273-.01-.017 5.874-4.307-.012zm4.335-9.693l3.412.01c1.063.003 1.894-.274 2.492-.832.617-.557.927-1.284.93-2.179.002-.95-.304-1.679-.918-2.184-.613-.524-1.47-.787-2.57-.79l-3.329-.01-.017 5.985zm31.268-9.783l-.056 19.578-4.251-.012.037-12.838-8.595 12.813-4.056-.011.056-19.578 4.252.012-.037 12.837 8.651-12.812 3.999.011zm2.575 23.669l.023-7.97 1.846.004a24.483 24.483 0 001.666-5.616c.341-1.976.517-4.567.526-7.774l.006-2.294 14.236.041-.045 15.69 2.349.007-.582 7.97-3.608-.01.012-4.084-12.25-.035-.292 4.082-3.887-.011zm13.985-19.733l-5.79-.017-.005 1.986c-.011 3.691-.608 6.962-1.79 9.811l7.551.022.034-11.803zm25.057 15.762l-4.279-.013.015-5.202-2.593-2.804-5.533 7.983-5.146-.015 7.779-11.08-7.443-8.497 5.118.015 7.833 9.168.026-9.145 4.28.012-.027 9.146 7.886-9.123 5.118.014-7.492 8.453 7.715 11.126-5.146-.015-5.515-8.015-2.581 2.79-.015 5.202zM51.882 56.002l.014-4.956.738.002-.011 3.921 2.954-3.912.72.002-.015 4.956-.738-.002.01-3.921-2.963 3.912-.71-.002zm6.047.018l.015-4.957.738.002-.006 2.138 2.856.009.007-2.138.738.002-.014 4.956-.739-.002.007-2.166-2.857-.009-.006 2.167-.739-.002zm5.983.017l.014-4.956 2.397.006c.492.002.885.115 1.178.34.293.224.44.525.438.902-.001.53-.277.91-.827 1.138.728.2 1.09.61 1.089 1.23a1.167 1.167 0 01-.492.986c-.327.242-.765.363-1.314.361l-2.483-.007zm.74-.63l1.649.004c.351.001.63-.072.834-.218a.713.713 0 00.309-.613.631.631 0 00-.324-.566c-.211-.135-.514-.203-.91-.204l-1.554-.005-.004 1.601zm.006-2.196l1.524.004c.307.001.55-.065.73-.199.185-.14.278-.338.28-.593a.607.607 0 00-.258-.51c-.172-.128-.415-.192-.728-.193l-1.544-.005-.004 1.496zm7.037 2.963c-.696-.002-1.284-.243-1.762-.724-.471-.487-.706-1.11-.704-1.871.002-.722.231-1.332.686-1.83a2.188 2.188 0 011.7-.752c.709.002 1.27.253 1.684.753.414.5.62 1.127.618 1.88 0 .096-.004.183-.01.26l-3.93-.012c.049.505.236.908.561 1.21.332.295.725.443 1.178.444.595.002 1.116-.23 1.565-.695l.459.413c-.558.619-1.24.927-2.045.924zm-1.717-2.89l3.192.009c-.043-.48-.202-.876-.476-1.19-.267-.32-.634-.481-1.1-.483a1.447 1.447 0 00-1.085.467c-.302.312-.478.711-.531 1.197zm7.458 2.907a2.432 2.432 0 01-1.81-.763 2.567 2.567 0 01-.723-1.833c.002-.71.246-1.316.733-1.82a2.417 2.417 0 011.815-.761c.767.002 1.427.298 1.982.888l-.472.497c-.458-.487-.966-.732-1.522-.733a1.65 1.65 0 00-1.267.562c-.34.37-.51.826-.512 1.37-.001.536.17.994.514 1.372.35.371.784.558 1.302.56.53.001 1.03-.247 1.498-.744l.487.452c-.577.637-1.252.955-2.025.953zm4.441-.102l.013-4.305-1.774-.005.002-.652 4.295.012-.002.652-1.773-.005-.013 4.305-.748-.002zm3.596.01l.014-4.956.738.002-.011 3.92 2.954-3.912.72.002-.015 4.956-.738-.002.01-3.92-2.963 3.912-.71-.002zm10.32 1.266l.003-1.236-4.276-.013.015-4.956.738.002-.013 4.305 2.78.008.013-4.305.738.002-.012 4.305.748.002-.12 1.888-.614-.002zm1.747-1.231l.014-4.957.739.002-.012 3.921 2.955-3.912.719.002-.014 4.956-.739-.002.012-3.92-2.964 3.912-.71-.002zm10.163-.614c-.5.504-1.118.755-1.853.752-.735-.002-1.348-.256-1.838-.762a2.543 2.543 0 01-.724-1.833c.002-.71.25-1.316.744-1.82.5-.51 1.117-.763 1.852-.761.735.002 1.348.256 1.839.762a2.53 2.53 0 01.733 1.834 2.531 2.531 0 01-.753 1.828zm-1.832.091c.531.002.966-.182 1.306-.552.346-.37.52-.826.521-1.37a1.916 1.916 0 00-.533-1.372 1.71 1.71 0 00-1.302-.57c-.53-.001-.965.186-1.305.562-.34.37-.511.827-.512 1.37-.002.537.173.994.523 1.372.351.372.785.559 1.302.56zm3.915.558l.014-4.957.738.002-.006 2.138 2.857.009.006-2.138.738.002-.014 4.956-.738-.002.006-2.166-2.857-.009-.006 2.167-.738-.002zm5.982.017l.014-4.956.739.002-.007 2.138 2.857.008.006-2.138.739.002-.015 4.956-.738-.002.006-2.166-2.857-.008-.006 2.166-.738-.002zm5.982.017l.015-4.956.738.002-.005 1.86 1.322.004c.576.001 1.045.127 1.409.377.363.244.544.616.543 1.114-.002.492-.172.885-.512 1.178-.339.287-.793.429-1.362.427l-2.148-.006zm.74-.65l1.343.004c.377.001.668-.078.873-.237.211-.16.317-.392.318-.699.001-.281-.107-.495-.324-.643-.21-.154-.507-.232-.891-.233l-1.313-.003-.006 1.811zm4.169.664l.014-4.956.738.002-.014 4.956-.738-.002zm2.384.007l.015-4.956.738.002-.011 3.92 2.954-3.912.719.002-.014 4.957-.738-.002.011-3.921-2.964 3.912-.71-.002zm3.085-5.983a1.288 1.288 0 01-.892.324 1.322 1.322 0 01-.9-.329 1.398 1.398 0 01-.448-.845l.508-.104c.126.448.407.672.842.674.434 0 .716-.222.845-.669l.508.107a1.386 1.386 0 01-.463.842zm8.815 7.551l.005-1.936c-.397.337-.81.505-1.238.504-.601-.002-1.086-.233-1.455-.694-.37-.468-.553-1.104-.551-1.91.002-.792.19-1.418.562-1.877.372-.46.858-.688 1.459-.686.428.001.84.181 1.235.54l.006-2.185.748.002-.006 2.186c.397-.357.81-.535 1.238-.534.607.002 1.095.237 1.465.704.369.462.553 1.092.55 1.89-.002.793-.192 1.422-.571 1.887-.372.46-.858.688-1.459.687-.275-.001-.501-.043-.68-.127a3.107 3.107 0 01-.555-.385l-.006 1.936-.747-.002zm-1.078-2.083c.416.001.777-.161 1.085-.486l.008-2.876c-.306-.327-.666-.49-1.082-.492-.46-.001-.809.17-1.046.515-.238.344-.357.82-.359 1.427-.004 1.272.461 1.91 1.394 1.912zm2.924.008c.933.003 1.402-.638 1.405-1.923.002-.6-.115-1.07-.35-1.41-.236-.346-.584-.52-1.044-.52-.415-.002-.78.16-1.094.485l-.008 2.876c.312.327.676.491 1.091.492zm7.661-.074c-.5.504-1.118.755-1.853.752-.735-.002-1.348-.256-1.838-.762a2.547 2.547 0 01-.724-1.834 2.52 2.52 0 01.744-1.819c.5-.51 1.117-.763 1.852-.761.735.002 1.348.256 1.839.762a2.53 2.53 0 01.733 1.833 2.531 2.531 0 01-.753 1.83zm-1.832.09c.531.002.966-.182 1.306-.551.346-.37.52-.827.521-1.37a1.916 1.916 0 00-.533-1.372 1.71 1.71 0 00-1.302-.57c-.53-.001-.965.186-1.305.562-.34.37-.511.826-.512 1.37-.002.537.173.994.523 1.372.351.372.785.558 1.302.56zm3.915.559l.014-4.957.738.002-.006 2.138 2.857.008.006-2.137.738.002-.014 4.956-.738-.002.006-2.167-2.857-.008-.006 2.167-.738-.002zm5.25 1.251l.005-1.888.537.001c.444-.81.667-1.957.672-3.44l.002-.862 3.528.01-.012 4.304.747.003-.12 1.888-.614-.002.004-1.237-4.007-.011-.138 1.236-.604-.002zm1.328-1.884l2.666.007.01-3.652-2.08-.006-.002.69c-.004 1.246-.202 2.233-.594 2.96z" fill="#fff"/></svg>