<svg width="168" height="64" fill="none" xmlns="http://www.w3.org/2000/svg"><path d="M0 20.423v20.423l21.444-18.891V0L0 20.423zm42.889 2.042v18.381L21.444 21.444H42.89v1.021z" fill="#fff"/><path d="M42.889 40.846L21.444 60.302V21.39L42.89 40.846z" fill="#FEB938"/><path d="M0 40.846l21.444 19.456V21.39L0 40.846z" fill="#FF970A"/><path d="M58.94 26.42l-.01 3.484 5.284.016c2.227.006 3.949.573 5.164 1.7 1.235 1.107 1.85 2.613 1.844 4.517-.006 2.019-.667 3.578-1.984 4.678-1.317 1.101-3.147 1.648-5.489 1.641l-9.253-.026.057-19.992 15.337.044-.011 3.97-10.939-.032zm4.806 7.154l-4.826-.014-.014 4.912 4.855.014c2.037.006 3.058-.838 3.063-2.533.005-1.58-1.021-2.373-3.078-2.379zm11.082 8.914l.057-19.992 8.169.024c2.36.006 4.225.65 5.592 1.93 1.367 1.279 2.048 2.966 2.042 5.06-.007 2.228-.773 3.958-2.3 5.192-1.527 1.214-3.461 1.818-5.803 1.81l-3.341-.009-.018 5.998-4.398-.013zm4.427-9.898l3.484.01c1.085.004 1.933-.28 2.544-.849.63-.57.947-1.311.95-2.225.002-.971-.31-1.714-.937-2.23-.627-.535-1.502-.804-2.625-.808l-3.399-.01-.017 6.112zm31.929-9.99l-.057 19.992-4.341-.012.037-13.109-8.777 13.084-4.14-.012.057-19.992 4.34.013-.037 13.108L107.1 22.59l4.084.012zm2.629 24.17l.024-8.14 1.885.006a25.003 25.003 0 001.701-5.736c.349-2.017.528-4.663.537-7.938l.007-2.342 14.537.042-.046 16.022 2.399.007-.595 8.138-3.684-.01.012-4.17-12.509-.037-.298 4.17-3.97-.012zm14.281-20.151l-5.912-.017-.006 2.028c-.011 3.77-.62 7.11-1.828 10.02l7.711.021.035-12.052zm25.587 16.096l-4.369-.013.015-5.312-2.648-2.864-5.65 8.152-5.255-.015 7.944-11.315-7.601-8.676 5.227.015 7.998 9.362.027-9.339 4.37.013-.027 9.339 8.052-9.316 5.227.015-7.651 8.632 7.879 11.36-5.255-.014-5.632-8.185-2.635 2.849-.016 5.312zM52.98 57.017l.014-5.061.753.002-.011 4.004 3.017-3.995.734.002-.015 5.06-.753-.001.011-4.004-3.026 3.995-.725-.002zm6.175.018l.014-5.061.754.002-.006 2.183 2.917.008.006-2.183.754.002-.014 5.062-.754-.003.006-2.212-2.917-.008-.006 2.212-.754-.002zm6.109.017l.014-5.06 2.448.006c.502.002.903.117 1.203.346.3.23.448.537.447.922-.001.541-.283.929-.845 1.162.744.205 1.114.623 1.113 1.257a1.19 1.19 0 01-.503 1.006c-.333.247-.78.37-1.342.369l-2.535-.008zm.755-.644l1.684.005c.36.001.643-.073.852-.222a.728.728 0 00.316-.626c0-.248-.11-.44-.332-.579-.215-.137-.524-.207-.929-.208l-1.586-.004-.005 1.634zm.007-2.241l1.556.004c.314.001.562-.067.745-.203.19-.143.285-.345.286-.607a.615.615 0 00-.263-.52c-.176-.13-.424-.196-.744-.197l-1.576-.005-.004 1.528zm7.186 3.026c-.712-.002-1.311-.249-1.8-.74-.48-.497-.72-1.134-.718-1.91.002-.738.235-1.36.7-1.869a2.234 2.234 0 011.735-.768c.724.002 1.298.258 1.72.769.424.51.634 1.15.632 1.92 0 .098-.004.186-.01.264l-4.015-.011c.051.516.242.927.575 1.235.338.301.739.453 1.202.454.607.002 1.14-.235 1.598-.71l.469.422c-.57.631-1.266.946-2.088.944zm-1.754-2.952l3.26.01c-.044-.49-.206-.895-.486-1.216-.273-.327-.648-.491-1.124-.493-.431 0-.8.158-1.108.477-.308.319-.488.726-.542 1.222zm7.616 2.968a2.484 2.484 0 01-1.848-.778 2.62 2.62 0 01-.739-1.872 2.587 2.587 0 01.75-1.858 2.468 2.468 0 011.852-.778c.783.002 1.458.305 2.024.907l-.481.507c-.469-.497-.987-.747-1.555-.748-.509-.002-.94.19-1.294.574-.347.377-.52.843-.523 1.398a2 2 0 00.525 1.401c.358.38.801.57 1.33.572.541.002 1.051-.251 1.53-.759l.497.462c-.59.65-1.279.975-2.068.972zm4.535-.104l.013-4.395-1.811-.006.002-.665 4.386.012-.002.666-1.811-.005-.013 4.395-.764-.002zm3.672.01l.014-5.06.754.002-.012 4.003 3.017-3.995.734.002-.014 5.062-.754-.003.012-4.003-3.027 3.995-.724-.002zm10.538 1.294l.003-1.263-4.366-.013.015-5.06.754.001-.013 4.396 2.839.008.013-4.395.753.002-.012 4.395.763.002-.123 1.929-.626-.002zm1.784-1.258l.015-5.061.754.002-.012 4.004 3.017-3.995.734.002-.014 5.061-.754-.002.011-4.004-3.026 3.995-.725-.002zm10.378-.626c-.511.514-1.141.77-1.892.768-.75-.002-1.376-.262-1.877-.779a2.598 2.598 0 01-.739-1.872 2.569 2.569 0 01.759-1.858c.511-.52 1.141-.78 1.892-.777.75.002 1.376.261 1.877.778.501.517.751 1.141.749 1.872a2.587 2.587 0 01-.769 1.868zm-1.87.093c.541.001.986-.187 1.333-.565.353-.377.531-.843.532-1.398a1.955 1.955 0 00-.544-1.401 1.748 1.748 0 00-1.33-.582c-.541-.001-.986.19-1.333.574-.347.378-.521.844-.522 1.398a1.976 1.976 0 00.534 1.402c.358.38.801.57 1.33.572zm3.997.569l.014-5.061.754.002-.006 2.183 2.917.008.007-2.183.753.002-.014 5.062-.754-.003.006-2.212-2.917-.008-.006 2.212-.754-.002zm6.109.018l.014-5.062.754.002-.006 2.184 2.917.008.006-2.183.754.002-.014 5.061-.754-.002.006-2.212-2.917-.009-.006 2.213-.754-.002zm6.109.017l.014-5.061.754.002-.005 1.9 1.35.003c.588.002 1.067.13 1.438.386.372.25.557.628.555 1.137-.001.503-.175.904-.522 1.203-.347.293-.811.438-1.391.436l-2.193-.006zm.755-.663l1.371.004c.385 0 .682-.08.891-.243.216-.162.325-.4.326-.713 0-.288-.11-.507-.331-.657-.215-.158-.519-.237-.91-.238l-1.341-.004-.006 1.85zm4.257.678l.014-5.062.754.003-.014 5.06-.754-.002zm2.435.006l.014-5.06.754.002-.011 4.003 3.017-3.995.734.002-.015 5.061-.753-.002.011-4.004-3.027 3.996-.724-.003zm3.15-6.109a1.314 1.314 0 01-.911.33 1.35 1.35 0 01-.919-.335c-.248-.223-.4-.51-.458-.863l.519-.106c.129.457.416.686.86.688.443 0 .731-.227.863-.683l.519.109c-.06.352-.218.639-.473.86zm9.001 7.71l.005-1.977c-.405.345-.827.517-1.264.516-.613-.002-1.109-.239-1.486-.71-.377-.477-.565-1.127-.562-1.95.002-.809.193-1.448.573-1.916.38-.47.877-.703 1.49-.701.437.001.858.185 1.261.552l.007-2.232.763.002-.006 2.232c.406-.364.827-.546 1.264-.545.62.002 1.119.242 1.496.72.377.47.565 1.114.562 1.93-.002.809-.196 1.451-.583 1.926-.38.47-.876.703-1.49.7-.28 0-.512-.043-.694-.128a3.197 3.197 0 01-.567-.393l-.006 1.977-.763-.002zm-1.1-2.127c.424.002.793-.164 1.107-.496l.009-2.937c-.313-.333-.681-.5-1.105-.502-.47-.001-.826.174-1.069.525-.242.352-.364.838-.366 1.458-.004 1.299.471 1.95 1.424 1.952zm2.985.009c.953.003 1.432-.652 1.435-1.964.002-.613-.117-1.093-.358-1.44-.24-.353-.595-.53-1.065-.532-.425 0-.797.165-1.118.496l-.008 2.937c.319.334.69.502 1.114.503zm7.823-.076c-.511.514-1.141.77-1.892.768-.75-.002-1.376-.261-1.877-.778a2.598 2.598 0 01-.739-1.872 2.569 2.569 0 01.759-1.858c.511-.52 1.142-.78 1.892-.778.751.002 1.376.262 1.877.779a2.58 2.58 0 01.749 1.872 2.587 2.587 0 01-.769 1.867zm-1.87.093c.542.002.986-.187 1.333-.564.353-.378.531-.844.532-1.398a1.955 1.955 0 00-.544-1.402 1.747 1.747 0 00-1.329-.581c-.542-.002-.986.19-1.333.573-.347.378-.522.844-.523 1.399a1.976 1.976 0 00.534 1.401c.358.38.801.57 1.33.572zm3.997.57l.015-5.062.753.002-.006 2.184 2.917.008.007-2.183.753.002-.014 5.061-.754-.002.006-2.212-2.917-.009-.006 2.213-.754-.003zm5.361 1.278l.006-1.929.548.002c.453-.828.681-1.999.686-3.513l.002-.88 3.603.01-.013 4.395.764.002-.123 1.928-.627-.001.004-1.263-4.092-.012-.141 1.263-.617-.002zm1.357-1.925l2.721.008.011-3.73-2.124-.006-.002.705c-.004 1.272-.206 2.28-.606 3.023z" fill="#fff"/></svg>