<?xml version="1.0" encoding="UTF-8"?><!DOCTYPE svg PUBLIC "-//W3C//DTD SVG 1.1//EN" "http://www.w3.org/Graphics/SVG/1.1/DTD/svg11.dtd"><svg xmlns="http://www.w3.org/2000/svg" xmlns:xlink="http://www.w3.org/1999/xlink"><symbol id="inline-corners" viewBox="0 0 15 14"><path d="M4.767.733v2.076a1.384 1.384 0 01-1.384 1.384H1.307m12.455 0h-2.076a1.384 1.384 0 01-1.384-1.384V.733m0 12.455v-2.075a1.384 1.384 0 011.384-1.384h2.076m-12.455 0h2.076a1.384 1.384 0 011.384 1.384v2.075" stroke="currentColor" stroke-width="1.307" stroke-linecap="round"/></symbol><symbol id="inline-play" viewBox="0 0 16 16"><path d="M7.898 14.797A6.898 6.898 0 107.898 1a6.898 6.898 0 000 13.797z" stroke="currentColor" stroke-width="1.307" stroke-linecap="round"/><path d="M6.519 5.823c0-.292.326-.467.57-.305L10.2 7.593a.366.366 0 010 .61l-3.112 2.075a.366.366 0 01-.57-.305v-4.15z" stroke="currentColor" stroke-width="1.307" stroke-linecap="round"/></symbol><symbol id="inline-social-instagram" viewBox="0 0 29 29"><circle cx="14.625" cy="14.57" r="13.875" fill="currentColor"/><path fill-rule="evenodd" clip-rule="evenodd" d="M20.212 10.01a1.025 1.025 0 11-2.05 0 1.025 1.025 0 012.05 0zm-5.586 7.41a2.848 2.848 0 110-5.697 2.848 2.848 0 010 5.696zm0-7.237a4.388 4.388 0 100 8.776 4.388 4.388 0 000-8.776zm0-2.617c2.281 0 2.552.009 3.453.05.833.038 1.285.177 1.586.294.4.155.684.34.983.64.299.298.484.583.64.982.116.3.255.753.293 1.586.041.902.05 1.172.05 3.453 0 2.282-.009 2.552-.05 3.453-.038.833-.177 1.286-.294 1.587-.155.399-.34.683-.64.982-.298.3-.583.485-.982.64-.3.117-.753.256-1.586.294-.901.041-1.172.05-3.453.05-2.282 0-2.552-.009-3.453-.05-.833-.038-1.286-.177-1.587-.294a2.647 2.647 0 01-.982-.64 2.647 2.647 0 01-.64-.982c-.116-.301-.256-.754-.294-1.587-.04-.9-.05-1.171-.05-3.453 0-2.281.01-2.551.05-3.453.038-.833.177-1.285.295-1.586.155-.399.34-.684.639-.983.299-.299.583-.484.982-.639.301-.117.754-.256 1.587-.294.901-.041 1.171-.05 3.453-.05zm0-1.54c-2.32 0-2.612.01-3.523.052-.91.041-1.53.186-2.074.397a4.187 4.187 0 00-1.514.986 4.187 4.187 0 00-.985 1.513c-.212.544-.356 1.165-.398 2.074-.041.912-.05 1.203-.05 3.523 0 2.32.009 2.612.05 3.523.042.91.186 1.53.398 2.074.218.562.51 1.039.985 1.514a4.19 4.19 0 001.514.985c.543.212 1.164.356 2.074.398.911.041 1.202.051 3.523.051 2.32 0 2.612-.01 3.523-.051.91-.042 1.53-.186 2.074-.398a4.191 4.191 0 001.514-.985c.475-.475.767-.952.985-1.514.211-.543.356-1.164.397-2.074.042-.911.052-1.202.052-3.523 0-2.32-.01-2.611-.052-3.523-.041-.91-.186-1.53-.397-2.074a4.19 4.19 0 00-.986-1.513 4.19 4.19 0 00-1.513-.986c-.544-.211-1.165-.356-2.074-.397-.912-.042-1.203-.052-3.523-.052z" fill="#000"/></symbol><symbol id="inline-social-telegram" viewBox="0 0 29 29"><circle cx="14.873" cy="14.57" r="13.875" fill="currentColor"/><path d="M10.852 17.081l7.266 5.136c.753.467 1.4.208 1.614-.726l2.96-13.385c.27-1.141-.484-1.66-1.291-1.297L4.125 13.242c-1.13.415-1.13 1.09-.216 1.349l4.467 1.349 10.226-6.278c.485-.26.915-.155.592.208" fill="#000"/></symbol><symbol id="inline-social-vk" viewBox="0 0 28 29"><circle cx="14.125" cy="14.57" r="13.875" fill="currentColor"/><path d="M14.235 19.583c.238-.046.666-.14.666-.703 0 0-.048-1.406.618-1.594.667-.187 1.523 1.36 2.427 1.97.666.421 1.19.374 1.19.374l2.427-.047s1.237-.093.666-1.078c-.048-.094-.428-.703-1.856-1.969-1.475-1.406-1.237-1.172.524-3.563 1.094-1.453 1.57-2.344 1.427-2.672-.19-.328-.952-.28-.952-.28H18.66c-.285 0-.428.046-.571.28 0 0-.428 1.172-1 2.11-1.189 2.016-1.665 2.11-1.903 1.969-.428-.235-.333-1.125-.333-1.735 0-2.11.333-2.86-.618-3.047-.619-.094-2.808-.187-3.474.14-.333.188-.524.517-.38.563.142 0 .57.047.808.329.38.609.428 3.515-.095 3.797-.714.515-2.522-2.907-2.95-4.032-.096-.281-.238-.328-.571-.422H4.955c-.285 0-.713.047-.523.61 1.285 2.625 3.95 9.047 8.756 9h1.047z" fill="#000"/></symbol><symbol id="inline-social-youtube-red" viewBox="0 0 37 37"><circle cx="18.5" cy="18.5" r="18.5" fill="currentColor"/><path fill-rule="evenodd" clip-rule="evenodd" d="M30.75 13.883s-.244-1.764-.994-2.54c-.95-1.02-2.016-1.025-2.504-1.084C23.753 10 18.506 10 18.506 10h-.012s-5.247 0-8.746.26c-.489.058-1.553.063-2.505 1.083-.75.776-.993 2.54-.993 2.54S6 15.954 6 18.025v1.941c0 2.072.25 4.142.25 4.142s.244 1.764.993 2.54c.952 1.02 2.2.988 2.757 1.095 2 .196 8.5.257 8.5.257s5.253-.008 8.752-.267c.488-.06 1.553-.065 2.504-1.084.75-.777.994-2.54.994-2.54s.25-2.071.25-4.143v-1.941c0-2.07-.25-4.142-.25-4.142zm-14.831 8.436l-.001-7.19 6.755 3.608-6.754 3.582z" fill="red"/></symbol><symbol id="inline-social-youtube" viewBox="0 0 28 29"><circle cx="13.875" cy="14.57" r="13.875" fill="currentColor"/><path fill-rule="evenodd" clip-rule="evenodd" d="M23.064 11.107s-.183-1.322-.745-1.905c-.713-.764-1.512-.768-1.878-.812-2.624-.195-6.56-.195-6.56-.195h-.008s-3.936 0-6.56.195c-.367.044-1.165.048-1.879.812-.562.583-.745 1.905-.745 1.905s-.187 1.554-.187 3.107v1.456a29.7 29.7 0 00.187 3.107s.183 1.322.745 1.905c.714.764 1.65.74 2.068.82 1.5.148 6.375.193 6.375.193s3.94-.006 6.564-.2c.366-.045 1.165-.049 1.878-.813.562-.583.745-1.905.745-1.905s.188-1.553.188-3.107v-1.456c0-1.553-.188-3.107-.188-3.107zm-11.123 6.328v-5.393l5.065 2.706-5.065 2.687z" fill="#000"/></symbol><symbol id="inline-sound" viewBox="0 0 19 15"><path d="M8.812 2.626a.872.872 0 00-1.447-.653l-2.7 2.38a.872.872 0 01-.576.218H1.774a.872.872 0 00-.872.871v4.069c0 .481.39.871.872.871h2.315c.212 0 .417.078.576.218l2.7 2.38a.871.871 0 001.447-.654v-9.7zM18 4.65l-5.65 5.651m0-5.651L18 10.302" stroke="currentColor" stroke-width="1.307" stroke-linecap="round"/></symbol></svg>